<svg xmlns="http://www.w3.org/2000/svg" xmlns:xlink="http://www.w3.org/1999/xlink" version="1.1" x="0px" y="0px" viewBox="0 0 87.6 100" xml:space="preserve"><path d="M85.2,47c0,0-2.5,4.6-4.6,5.4c-2,0.8-22.9,10-26.3,9.5c-3.3-0.6,3.4-5.7,21.2-13.2c17.8-7.4,0-28.1,0-28.1l-0.3,0.9  c-2.3,7.9-7.6,14.6-14.9,18.3c-2.9,1.5-5.6,3.8-8.1,3.2c-8-2.1,32.5-21.2,12.4-28.9C44.5,6.4,39.3,0.4,39.3,0.4  c-4.1,6.8-20.7,10.8-20.7,18.3c0.1,7.5,12.9,12.7,9.5,15.5c-3.3,2.9-13.4-12.1-13.4-12.1c-7.5,6.5-8,11.4-8,11.4  c3.4,14.4,24.5,23.5,15,22.7C7.4,55,2.6,43,2.6,43c-1,4.4-2,12.1-1.8,19.3c0.3,8.1,2.8,15.9,7.4,22.5c11.7,16.6,24.3,5.4,29.1-0.1  l0-1.7c-4.3,2.8-10.4,4.8-18.1,5.7c-0.7,0.1-1.9-0.2-2-0.9c-0.1-0.5,0.3-0.8,1.2-0.9c8.3-1,14.6-3.3,18.7-6.8c0-0.3,0.1-0.5,0.2-0.6  c0,0,0.1-0.2,0.1-0.3l0,0l0-1c-0.3-0.1-0.6-0.2-1-0.3c-0.6-0.1-1.1-0.2-1.9-0.2c-0.3,0-0.7,0-1.1,0c-0.4,0-0.9-0.1-1.3-0.1h-2.7  c-0.4,0-0.9,0-1.3,0c-0.8,0-1.7,0-2.5,0.1c-0.7,0-1.4,0-2.1,0c0,0,0,0,0,0c-1,0-2-0.1-2.9-0.2c-1-0.1-2.1-0.2-3-0.4l-2.7-0.6  c-0.4-0.1-0.8-0.2-1.3-0.4c-0.3-0.1-0.5-0.2-0.7-0.3c-0.1-0.1-0.2-0.1-0.3-0.1L12,75.7c-0.2-0.1-0.4-0.4-0.3-0.6  c0.1-0.2,0.4-0.4,0.6-0.3l0.1,0.1c0.1,0,0.2,0.1,0.3,0.1c0.2,0,0.4,0.1,0.6,0.2c0.2,0,0.3,0.1,0.5,0.1l1.2,0.3  c0.7,0.2,1.6,0.4,2.6,0.5c0.9,0.1,1.9,0.2,2.9,0.3c0.3,0,0.6,0,1,0c0.7,0,1.3,0,1.9,0c1,0,2-0.1,3-0.2c1-0.1,2-0.2,2.9-0.3  c0.4,0,0.9-0.1,1.4-0.1c0.5,0,0.9,0,1.3-0.1c0.4,0,0.7,0,0.9,0c0.6,0,1.1,0,1.7,0c1.1,0,1.9,0.1,2.6,0.2l0.1-7.3c-0.1,0-0.2,0-0.3,0  c-0.2,0-0.4-0.1-0.5-0.1c-0.3,0-0.7-0.1-1.2-0.2c-0.3-0.1-0.7-0.2-1-0.3c-0.3-0.1-0.6-0.1-1-0.2c-0.3-0.1-0.6-0.2-0.9-0.3  c-0.4-0.1-0.9-0.3-1.4-0.4l-0.7-0.3c-0.6-0.2-1.3-0.5-2-0.8c-0.3-0.1-0.6-0.3-0.9-0.4c-0.6-0.2-1.2-0.5-1.9-0.8  c-0.9-0.4-1.8-0.8-2.7-1.3c-1.8-0.9-3.6-1.9-5.2-2.8c-1.1-0.6-2.2-1.3-3.2-1.9c-0.4-0.3-0.9-0.5-1.3-0.8c-2.5-1.5-4.1-2.6-4.1-2.6  c-0.2-0.2-0.3-0.5-0.1-0.7c0.2-0.2,0.5-0.3,0.7-0.1c0,0,1.7,1.1,4.3,2.6c0.4,0.2,0.8,0.4,1.2,0.7c1,0.5,2.1,1.2,3.3,1.7  c1.7,0.9,3.5,1.7,5.3,2.5l2.7,1.2c0.9,0.4,1.8,0.7,2.7,1l0.7,0.2c0.6,0.2,1.2,0.4,1.8,0.6c0.8,0.2,1.6,0.4,2.3,0.6  c0.6,0.2,1.2,0.3,1.7,0.3l0.6,0.1c0.4,0.1,0.8,0.1,1.1,0.1c0,0,0.1,0,0.1,0l0.2-13.8l-0.6-0.1c-0.4-0.1-0.8-0.2-1.2-0.4  c-0.5-0.2-1.1-0.4-1.8-0.6c-0.4-0.1-0.8-0.3-1.2-0.5c-0.3-0.1-0.5-0.3-0.8-0.4c-0.4-0.2-0.8-0.4-1.2-0.7c-0.3-0.2-0.6-0.4-1-0.5  c-0.8-0.5-1.6-1-2.3-1.4c-0.7-0.5-1.4-1-2.2-1.6c-0.4-0.3-0.7-0.6-1.1-0.9c-0.4-0.3-0.7-0.6-1.1-0.9c-0.3-0.3-0.7-0.6-1-0.9  c-0.3-0.3-0.6-0.6-0.9-0.8c-0.2-0.2-0.4-0.4-0.6-0.6c-0.4-0.4-0.8-0.7-1.1-1.2c-0.2-0.2-0.5-0.5-0.7-0.8c-0.2-0.3-0.5-0.5-0.7-0.8  c-1.7-2-2.7-3.4-2.8-3.5c-0.2-0.2-0.1-0.5,0.1-0.7c0.2-0.2,0.5-0.1,0.7,0.1c0,0,1.1,1.4,3,3.3l1.5,1.5c0.2,0.2,0.5,0.4,0.7,0.6  c0.3,0.3,0.7,0.6,1,0.9c0.6,0.6,1.3,1.1,2,1.6c0.7,0.5,1.4,1,2.1,1.6c0.6,0.4,1.4,0.9,2.1,1.3c0.3,0.2,0.7,0.4,1,0.6  c0.4,0.2,0.8,0.5,1.1,0.6c0.3,0.1,0.6,0.3,0.9,0.4c0.4,0.2,0.8,0.4,1.2,0.5l0.5,0.2c0.5,0.2,1,0.4,1.5,0.6c0.6,0.2,1.2,0.4,1.7,0.5  c0.4,0.1,0.9,0.2,1.2,0.3L38,28.3c-0.1-0.1-0.1-0.1-0.2-0.2c-0.1-0.1-0.2-0.1-0.3-0.2c-0.1-0.1-0.1-0.1-0.2-0.2c0,0-0.1-0.1-0.1-0.1  c-0.2-0.2-0.4-0.4-0.6-0.5c-0.3-0.2-0.4-0.4-0.6-0.6c-0.1-0.1-0.2-0.2-0.3-0.3c-0.3-0.3-0.5-0.5-0.7-0.8l-0.2-0.2  c-0.3-0.3-0.5-0.7-0.7-1.2c-0.2-0.4-0.4-0.7-0.6-1c0,0-0.1-0.1-0.1-0.1c-0.4-0.8-0.8-1.6-1.1-2.4c-0.1-0.3-0.2-0.6-0.3-0.9  c-0.2-0.4-0.3-0.9-0.5-1.2c-0.5-1.2-0.6-2.2-0.6-2.2c0-0.3,0.1-0.5,0.4-0.5c0.2-0.1,0.5,0.1,0.6,0.3c0,0,0.3,0.8,0.8,2  c0.1,0.2,0.2,0.4,0.3,0.6c0.2,0.4,0.4,0.9,0.7,1.4c0.4,0.7,0.8,1.4,1.3,2.1c0.2,0.2,0.3,0.3,0.4,0.5c0.1,0.2,0.2,0.3,0.3,0.4  c0.2,0.2,0.3,0.3,0.4,0.5c0.1,0.1,0.2,0.3,0.4,0.4c0.1,0.1,0.2,0.2,0.3,0.3c0.1,0.2,0.3,0.3,0.4,0.4c0.2,0.1,0.3,0.3,0.5,0.4  c0.1,0.1,0.2,0.2,0.3,0.3c0.1,0.1,0.1,0.1,0.2,0.1l0.2-19.3c0-0.3,0.2-0.5,0.5-0.5c0,0,0,0,0,0c0.3,0,0.5,0.2,0.5,0.5L39.7,39  c0.1-0.1,0.2-0.1,0.4-0.2c0.3-0.1,0.5-0.2,0.8-0.4c0.5-0.2,1.1-0.5,1.7-0.8c0.2-0.1,0.4-0.2,0.6-0.3c0.4-0.2,0.9-0.4,1.4-0.7  c0.7-0.4,1.4-0.8,2.1-1.3c0.7-0.5,1.4-1,2.2-1.5c0.6-0.6,1.4-1.2,2.1-1.7c0.6-0.5,1.3-1.1,1.9-1.8c0.2-0.3,0.5-0.6,0.8-0.8  c0.4-0.4,0.7-0.7,1-1.1c0.6-0.7,1.1-1.3,1.5-2c0.4-0.5,0.8-1.1,1.2-1.9c0.1-0.3,0.3-0.5,0.4-0.8c0.2-0.3,0.4-0.6,0.5-0.9  c0.3-0.6,0.5-1.1,0.6-1.3c0.4-0.8,0.5-1.2,0.5-1.2c0.1-0.3,0.3-0.4,0.6-0.4c0.3,0.1,0.4,0.3,0.4,0.5c0,0,0,0,0,0c0,0,0,0,0,0  c0,0,0,0,0,0c0,0,0,0,0,0c0,0-0.1,0.6-0.4,1.3c-0.1,0.2-0.1,0.3-0.2,0.5c-0.1,0.3-0.2,0.6-0.4,1c-0.2,0.5-0.5,1.1-0.8,1.7  c-0.3,0.6-0.7,1.3-1.1,2c-0.4,0.7-0.9,1.4-1.4,2.1c-0.5,0.7-1.1,1.4-1.7,2.1c-0.6,0.8-1.4,1.5-2,2.1c-0.4,0.3-0.7,0.6-1.1,1  c-0.4,0.3-0.7,0.7-1.1,1c-0.6,0.5-1.1,0.9-1.7,1.4L47.8,37c-0.7,0.5-1.4,1-2.2,1.4c-0.7,0.4-1.4,0.8-2,1.2c-0.7,0.5-1.4,0.8-1.8,0.9  c-0.2,0.1-0.5,0.3-0.7,0.4c-0.2,0.1-0.4,0.2-0.5,0.3c-0.4,0.2-0.7,0.4-1,0.5l0.2,16.8c0.1,0,0.3,0,0.4-0.1c0.1,0,0.3-0.1,0.5-0.1  c0.1,0,0.3,0,0.4-0.1c0.3-0.1,0.7-0.2,1.1-0.3c0.7-0.3,1.6-0.6,2.5-0.9c0.3-0.1,0.7-0.3,1.1-0.4c0.6-0.3,1.3-0.5,1.9-0.8  c0.6-0.3,1.1-0.5,1.7-0.8c0.6-0.3,1.1-0.6,1.7-0.8c0.3-0.2,0.6-0.4,1-0.6c0.8-0.4,1.6-0.9,2.5-1.3c0.4-0.2,0.8-0.5,1.3-0.8  c0.7-0.4,1.4-0.9,2.2-1.4c0.5-0.4,1.1-0.8,1.7-1.2c0.6-0.4,1.1-0.7,1.7-1.1c1.1-0.8,2.2-1.6,3.2-2.4c1-0.8,2-1.6,2.9-2.3  c0.7-0.5,1.4-1.1,2-1.7l0.5-0.4c3-2.8,4.9-4.8,5-4.9c0,0,0,0,0,0c0.2-0.2,0.5-0.2,0.7,0c0.2,0.2,0.2,0.5,0.1,0.7c0,0,0,0,0,0  c0,0,0,0,0,0c0,0,0,0,0,0c0,0,0,0,0,0c0,0,0,0,0,0c0,0,0,0,0,0c0,0,0,0,0,0c0,0-1.9,2-4.9,4.9c-0.3,0.3-0.6,0.5-0.8,0.8  c-0.5,0.5-1.1,1-1.7,1.5c-0.9,0.8-1.8,1.6-2.8,2.4c-0.4,0.3-0.7,0.6-1.1,0.9c-0.7,0.5-1.3,1.1-2.1,1.6c-0.5,0.4-1.1,0.8-1.7,1.3  c-0.5,0.4-1.1,0.8-1.6,1.2c-1,0.7-2.2,1.5-3.4,2.3c-1.2,0.7-2.3,1.4-3.4,2.1c-0.4,0.2-0.8,0.4-1.1,0.6c-0.7,0.4-1.5,0.9-2.2,1.2  c-0.3,0.2-0.7,0.3-1,0.5c-0.7,0.3-1.4,0.7-2.1,0.9c-0.7,0.3-1.3,0.5-1.8,0.7c-0.3,0.1-0.6,0.2-0.9,0.3c-0.3,0.2-0.6,0.3-0.9,0.3  L42,60.5c-0.4,0.1-0.7,0.2-1,0.3c-0.4,0.1-0.8,0.2-1,0.3l0.1,11.7l0.4-0.1c0.6-0.1,1.3-0.2,2.2-0.3c0.8-0.1,1.8-0.3,2.7-0.5l0.7-0.1  c0.8-0.2,1.7-0.3,2.7-0.6c0.7-0.2,1.6-0.4,2.4-0.6l1.2-0.3c0.8-0.2,1.6-0.4,2.4-0.7c0.5-0.2,0.9-0.3,1.4-0.5  c1.3-0.4,2.6-0.9,3.9-1.4c0.6-0.2,1.3-0.5,1.9-0.8c0.6-0.3,1.3-0.6,1.9-0.8l3.6-1.8c1-0.6,2.2-1.2,3.1-1.9c0.5-0.3,0.9-0.6,1.3-0.9  c0.5-0.4,1-0.7,1.5-1c0.8-0.6,1.6-1.2,2.3-1.7c0.4-0.3,0.8-0.6,1.1-0.9c0.2-0.2,0.4-0.3,0.6-0.5c0.2-0.2,0.5-0.1,0.7,0.1  c0.2,0.2,0.2,0.5,0,0.7l-0.1,0.1c-0.2,0.2-0.4,0.4-0.7,0.6c-0.3,0.3-0.6,0.6-0.9,0.9c-0.4,0.4-0.8,0.7-1.2,1c-0.3,0.3-0.7,0.5-1,0.8  L73.8,62c-0.8,0.6-1.6,1.2-2.6,1.8c-0.6,0.4-1.2,0.8-1.9,1.2c-0.4,0.3-0.8,0.5-1.3,0.8c-1.1,0.7-2.3,1.3-3.5,1.9  c-1.4,0.7-2.7,1.3-3.9,1.7c-0.4,0.2-0.9,0.3-1.3,0.5c-0.9,0.4-1.8,0.7-2.6,1c-0.8,0.2-1.6,0.5-2.3,0.8c-0.5,0.2-1,0.3-1.5,0.5  c-0.5,0.1-0.9,0.3-1.4,0.4c-0.8,0.2-1.5,0.4-2.2,0.7l-1,0.2c-0.9,0.2-1.7,0.4-2.4,0.6c-0.9,0.3-1.9,0.5-2.8,0.6  c-0.6,0.1-1.2,0.2-1.7,0.3l-0.4,0.1c-0.3,0-0.5,0.1-0.8,0.1l0,3.6l0.2,0c1.2,0.1,2.8,0.3,4.6,0.6c1.5,0.2,3.3,0.4,5.1,0.6l1.5,0.2  c0.6,0,1.1,0.1,1.7,0.2c0.6,0.1,1.3,0.2,2,0.2c0.7,0.1,1.4,0.1,2.1,0.2c0.6,0.1,1.2,0.1,1.7,0.2c1.3,0.1,2.6,0.2,3.8,0.2h1.9  c0.6,0,1.2,0,1.7-0.1c0.4,0,0.7,0,0.9-0.1c0.3,0,0.6-0.1,0.9-0.1c0.5,0,0.9-0.1,1.4-0.2l0.2,0c1.1-0.1,2.1-0.3,3.1-0.5  c0.5-0.1,0.9-0.2,1.2-0.4c0,0,0.1,0,0.1,0c0.2,0,0.4-0.1,0.5-0.2c0.2-0.1,0.4-0.2,0.6-0.2c0.7-0.3,1.3-0.6,1.7-0.8l0.4-0.3  c0.3-0.2,0.5-0.3,0.6-0.4c0.2-0.2,0.5-0.2,0.7,0c0.1,0.1,0.1,0.2,0.1,0.4s0,0.3-0.1,0.4c-0.2,0.2-0.6,0.5-1.1,0.8  c-0.3,0.2-0.6,0.4-1,0.5c-0.3,0.1-0.6,0.3-0.9,0.5c-0.2,0.1-0.5,0.2-0.7,0.3c-0.2,0.1-0.4,0.1-0.6,0.2c-0.4,0.2-0.8,0.3-1.2,0.4  l-0.2,0c-0.9,0.3-2,0.5-3.1,0.7c-0.5,0.1-1,0.2-1.6,0.3l-0.1,0c-0.6,0.1-1.2,0.2-1.9,0.2c-0.2,0-0.6,0.1-0.9,0.1  c-0.3,0-0.6,0-0.9,0.1c-0.4,0-0.7,0-1,0.1c-0.3,0-0.7,0.1-1,0.1c-0.9,0.1-1.7,0-2.6,0c-0.4,0-0.9,0-1.3,0c-1.3,0-2.6-0.1-3.9-0.2  l-0.3,0c-1.2-0.1-2.3-0.2-3.4-0.2c-2-0.2-3.9-0.3-5.6-0.3l-1-0.1c-0.8,0-1.6-0.1-2.3-0.2c-0.3,0-0.6,0-0.9-0.1  c0.3,0.3,0.6,0.7,0.9,1.1c0,0,0.1,0.1,0.2,0.2c0.1,0.1,0.3,0.3,0.4,0.4c0.2,0.1,0.3,0.3,0.5,0.4c0.1,0.1,0.2,0.2,0.3,0.3  c0.6,0.5,1.2,1,1.9,1.4c0.7,0.5,1.3,0.9,2.2,1.3c0.8,0.4,1.6,0.8,2.4,1.1c2.9,1.1,6.4,1.9,9.5,2.2c2.7,0.3,4.4,0.3,4.5,0.3  c0.3,0,0.5,0.2,0.5,0.5c0,0.3-0.2,0.5-0.4,0.5c-0.1,0-1.9,0.2-4.6,0.1c-1.6-0.1-5.8-0.4-9.9-1.8c-0.8-0.3-1.7-0.6-2.6-1l-2.4-1.2  c-0.7-0.4-1.5-0.9-2.2-1.4c-0.2-0.1-0.3-0.2-0.5-0.4c-0.1-0.1-0.3-0.2-0.4-0.3c-0.3-0.2-0.7-0.6-0.9-0.8c-0.2-0.2-0.4-0.4-0.5-0.5  l0,0.1c2.9,7.4,6.9,17.5,29.3,9.1C94.2,84.2,85.2,47,85.2,47z"/></svg>