<svg xmlns="http://www.w3.org/2000/svg" xmlns:xlink="http://www.w3.org/1999/xlink" version="1.1" x="0px" y="0px" viewBox="0 0 100 125" enable-background="new 0 0 100 100" xml:space="preserve"><path fill-rule="evenodd" clip-rule="evenodd" d="M68.208,34.56c-3.6,1.068-8.367,2.352-14.3,3.852  c-6.133,1.566-10.733,3.082-13.8,4.549c-5.067,2.4-9.4,5.734-13,10v0.051c-2.967,3.5-5.75,7.516-8.35,12.049  c-2.6,4.4-4.517,8.484-5.75,12.25c-0.3,0.801-0.783,3-1.45,6.602c-1.833-12.334-2.667-19.533-2.5-21.602  c0.3-8.166,3.133-14.898,8.5-20.199c3.033-3.1,7.233-5.533,12.6-7.301c2.667-0.865,7.75-2.082,15.25-3.648  c14.367-2.801,24.6-7.301,30.7-13.5c1.567-1.5,3.633-4.102,6.2-7.801c1.267-2,2.233-3.617,2.9-4.85c5.4,13.566,7,27.184,4.8,40.85  c-2.233,13.4-7.75,24.551-16.55,33.449c-7.733,7.801-16.167,12.75-25.3,14.852c-7.767,1.898-18.9,0.533-33.4-4.102  c0.033-0.133,0.067-0.25,0.1-0.35c1.1-6.467,1.8-10.117,2.1-10.949c0.033-0.033,0.05-0.066,0.05-0.1  c1.167-3.533,2.967-7.367,5.4-11.5c2.467-4.301,5.1-8.117,7.9-11.451c3.2-3.832,7.066-6.816,11.6-8.949  c2.934-1.334,7.3-2.734,13.1-4.201c6.233-1.6,13.017-5.199,20.35-10.799L68.208,34.56z"/></svg>